<svg width="50" height="50" viewBox="0 0 50 50" fill="none" xmlns="http://www.w3.org/2000/svg">
<path opacity="0.2" d="M28.8462 50.0001C40.5292 50.0001 50.0001 40.5292 50.0001 28.8462C50.0001 17.1633 40.5292 7.69238 28.8462 7.69238C17.1633 7.69238 7.69238 17.1633 7.69238 28.8462C7.69238 40.5292 17.1633 50.0001 28.8462 50.0001Z" fill="#2745FF"/>
<path d="M23.0769 0C10.3305 0 0 10.3305 0 23.0769C0 35.8233 10.3305 46.1538 23.0769 46.1538C35.8233 46.1538 46.1538 35.8233 46.1538 23.0769C46.1538 10.3305 35.8233 0 23.0769 0ZM17.7764 3.96184C16.4017 5.1247 15.1713 6.72025 14.1481 8.65385C13.2151 8.18059 12.3227 7.63972 11.4799 7.03125H11.4168C13.3143 5.65204 15.4597 4.60186 17.7764 3.96184ZM8.93329 9.17668C10.1412 10.1142 11.4483 10.9345 12.8275 11.6241C11.8314 14.3329 11.1779 17.4609 10.9751 20.8233H3.37139C3.88071 16.3071 5.90895 12.2506 8.93329 9.17668ZM3.26773 24.0685H10.921C11.0201 27.9132 11.7097 31.4874 12.8275 34.5298C11.4438 35.2148 10.1412 36.0397 8.93329 36.9772C5.62951 33.6193 3.51562 29.0895 3.26773 24.0685ZM11.4213 39.1226H11.4844C12.3272 38.5141 13.2151 37.9733 14.1526 37.5C15.1803 39.4336 16.4062 41.0291 17.781 42.192C15.4597 41.552 13.3143 40.5018 11.4213 39.1226ZM21.6797 40.8398C19.9038 40.2764 18.3038 38.6584 17.0373 36.3191C18.5156 35.8459 20.0706 35.5439 21.6797 35.4312V40.8398ZM21.6797 32.177C19.6154 32.2987 17.6277 32.6953 15.7437 33.3263C14.8287 30.6716 14.2608 27.4985 14.1662 24.0685H21.6797V32.177ZM21.6797 20.8233H14.2203C14.405 17.8756 14.9414 15.1532 15.7392 12.8275C17.6232 13.4585 19.6109 13.8507 21.6752 13.9769V20.8233H21.6797ZM21.6797 10.7227C20.0706 10.61 18.5156 10.308 17.0373 9.83474C18.3038 7.49099 19.9038 5.8729 21.6797 5.314V10.7227ZM42.7825 20.8233H35.1788C34.976 17.4609 34.3224 14.3329 33.3263 11.6241C34.71 10.939 36.0126 10.1142 37.2206 9.17668C40.2449 12.2506 42.2731 16.3071 42.7825 20.8233ZM34.7326 7.03125H34.6695C33.8266 7.63972 32.9387 8.18059 32.0012 8.65385C30.9736 6.72025 29.7476 5.1247 28.3729 3.96184C30.6941 4.60186 32.8395 5.65204 34.7326 7.03125ZM24.9249 5.48077C26.5204 6.15685 27.9582 7.69381 29.1166 9.83474C27.7779 10.2629 26.3717 10.5514 24.9249 10.6866V5.48077ZM24.9249 13.9453C26.8269 13.7966 28.6659 13.4135 30.4102 12.8275C31.2124 15.1532 31.7488 17.8756 31.9291 20.8233H24.9249V13.9453ZM24.9249 24.0685H31.9877C31.893 27.4985 31.3251 30.6716 30.4102 33.3263C28.6659 32.7404 26.8269 32.3618 24.9249 32.2085V24.0685ZM24.9249 40.6731V35.4672C26.3717 35.6025 27.7734 35.8909 29.1166 36.3191C27.9582 38.46 26.5204 39.997 24.9249 40.6731ZM28.3774 42.192C29.7521 41.0291 30.9826 39.4336 32.0057 37.5C32.9387 37.9733 33.8311 38.5141 34.674 39.1226H34.7371C32.8395 40.5018 30.6941 41.552 28.3774 42.192ZM37.2206 36.9772C36.0126 36.0397 34.7055 35.2194 33.3263 34.5298C34.4486 31.4874 35.1337 27.9087 35.2329 24.0685H42.8861C42.6382 29.0895 40.5243 33.6193 37.2206 36.9772Z" fill="#2745FF"/>
</svg>
