<svg width="57" height="50" viewBox="0 0 57 50" fill="none" xmlns="http://www.w3.org/2000/svg">
<path opacity="0.2" d="M31.3725 17.787H9.46688C7.48542 17.787 5.88232 19.8129 5.88232 22.3169V45.47C5.88232 47.974 7.48542 49.9999 9.46688 49.9999H36.9179H52.9411C55.107 49.9999 56.8627 48.2441 56.8627 46.0783V8.82342C56.8627 6.6576 55.107 4.90186 52.9411 4.90186H35.2941C33.1283 4.90186 31.3725 6.6576 31.3725 8.82342V17.787Z" fill="#2745FF"/>
<path d="M36.2439 43.4874C36.2439 42.5965 35.5319 41.8768 34.6507 41.8768H1.59314C0.711933 41.8768 0 42.5965 0 43.4874C0 44.3783 0.711933 45.0981 1.59314 45.0981H34.6507C35.5319 45.0981 36.2439 44.3783 36.2439 43.4874Z" fill="#2745FF"/>
<path d="M3.58456 38.6555H32.6593C34.6408 38.6555 36.2439 37.0348 36.2439 35.0316V16.5091C36.2439 14.5059 34.6408 12.8852 32.6593 12.8852H3.58456C1.60309 12.8852 0 14.5059 0 16.5091V35.0316C0 37.0348 1.60309 38.6555 3.58456 38.6555ZM3.18627 16.1065H33.0576V35.4342H3.18627V16.1065Z" fill="#2745FF"/>
<path d="M47.3954 0H29.0743C27.0928 0 25.4897 1.62071 25.4897 3.62395V8.05322C25.4897 8.94411 26.2017 9.66386 27.0829 9.66386C27.9641 9.66386 28.676 8.94411 28.676 8.05322V3.22129H47.7937V32.2129H41.4211C40.5399 32.2129 39.828 32.9326 39.828 33.8235C39.828 34.7144 40.5399 35.4342 41.4211 35.4342H47.7937V41.8768H41.1224C41.1373 41.8768 41.1523 41.8868 41.1622 41.8969C40.4055 42.0227 39.828 42.6871 39.828 43.4874C39.828 44.2877 40.4055 44.9521 41.1622 45.0779C41.1523 45.093 41.1373 45.098 41.1224 45.098H47.3954C49.3769 45.098 50.9799 43.4773 50.9799 41.4741V3.62395C50.9799 1.62071 49.3769 0 47.3954 0Z" fill="#2745FF"/>
<path d="M39.1815 40.6162C40.2644 40.6162 41.1423 39.7383 41.1423 38.6554C41.1423 37.5725 40.2644 36.6946 39.1815 36.6946C38.0986 36.6946 37.2207 37.5725 37.2207 38.6554C37.2207 39.7383 38.0986 40.6162 39.1815 40.6162Z" fill="#2745FF"/>
</svg>
