<svg width="120" height="120" viewBox="0 0 120 120" fill="none" xmlns="http://www.w3.org/2000/svg">
<g filter="url(#filter0_d)">
<circle cx="60" cy="56" r="45" fill="white"/>
</g>
<path d="M39.0036 48.3543L60.3613 59.9103H61.5158L83.1621 48.3543C83.7393 48.0654 84.028 47.7765 84.028 47.1987C84.028 46.6209 83.7393 46.0431 83.1621 46.0431L61.8044 35.0649C61.5158 34.776 60.9385 34.776 60.6499 35.0649L39.0036 45.7542C38.4264 46.0431 38.1377 46.6209 38.1377 47.1987C38.1377 47.7765 38.4264 48.0654 39.0036 48.3543ZM82.8735 56.4435L78.5442 54.4212L75.3694 56.1546L79.1215 57.888L60.6499 67.9995L42.467 57.888L46.219 55.8657L43.3329 54.1323L38.715 56.4435C37.5605 57.0213 37.5605 58.4658 38.715 59.0436L60.0727 70.5996C60.3613 70.5996 60.6499 70.8885 60.6499 70.8885C60.9385 70.8885 61.2272 70.8885 61.2272 70.5996L82.8735 59.0436C84.028 58.4658 84.028 57.0213 82.8735 56.4435ZM82.8735 66.555L78.8328 64.5327L75.6581 66.2661L79.1215 67.9995L60.6499 78.111L42.467 67.9995L45.9304 66.2661L42.7556 64.5327L38.715 66.555C37.5605 67.1328 37.5605 68.5773 38.715 69.1551L60.0727 80.7111C60.3613 81 60.3613 81 60.6499 81C60.9385 81 61.2272 81 61.2272 80.7111L82.8735 69.1551C84.028 68.5773 84.028 67.1328 82.8735 66.555Z" fill="#FDAFBB"/>
<path d="M35.1545 44.5061L56.5122 56.0621H57.6667L79.313 44.5061C79.8902 44.2172 80.1788 43.9283 80.1788 43.3505C80.1788 42.7727 79.8902 42.1949 79.313 42.1949L57.9553 31.2167C57.6667 30.9278 57.0894 30.9278 56.8008 31.2167L35.1545 41.906C34.5772 42.1949 34.2886 42.7727 34.2886 43.3505C34.2886 43.9283 34.5772 44.2172 35.1545 44.5061ZM57.378 34.1057L75.561 43.3505L57.0894 53.1731L38.9065 43.3505L57.378 34.1057ZM79.0244 52.5953L74.6951 50.573L71.5203 52.3064L75.2723 54.0398L56.8008 64.1513L38.6179 54.0398L42.3699 52.0175L39.4837 50.2841L34.8659 52.5953C33.7114 53.1731 33.7114 54.6176 34.8659 55.1954L56.2236 66.7514C56.5122 66.7514 56.8008 67.0403 56.8008 67.0403C57.0894 67.0403 57.378 67.0403 57.378 66.7514L79.0244 55.1954C80.1788 54.6176 80.1788 53.1731 79.0244 52.5953ZM79.0244 62.7068L74.9837 60.6845L71.8089 62.4179L75.2723 64.1513L56.8008 74.2628L38.6179 64.1513L42.0813 62.4179L38.9065 60.6845L34.8659 62.7068C33.7114 63.2846 33.7114 64.7291 34.8659 65.3069L56.2236 76.8629C56.5122 77.1518 56.5122 77.1518 56.8008 77.1518C57.0894 77.1518 57.378 77.1518 57.378 76.8629L79.0244 65.3069C80.1788 64.7291 80.1788 63.2846 79.0244 62.7068Z" fill="#FF647C"/>
<defs>
<filter id="filter0_d" x="0" y="0" width="120" height="120" filterUnits="userSpaceOnUse" color-interpolation-filters="sRGB">
<feFlood flood-opacity="0" result="BackgroundImageFix"/>
<feColorMatrix in="SourceAlpha" type="matrix" values="0 0 0 0 0 0 0 0 0 0 0 0 0 0 0 0 0 0 127 0"/>
<feOffset dy="4"/>
<feGaussianBlur stdDeviation="7.5"/>
<feColorMatrix type="matrix" values="0 0 0 0 0.984314 0 0 0 0 0.654902 0 0 0 0 0.670588 0 0 0 0.5 0"/>
<feBlend mode="normal" in2="BackgroundImageFix" result="effect1_dropShadow"/>
<feBlend mode="normal" in="SourceGraphic" in2="effect1_dropShadow" result="shape"/>
</filter>
</defs>
</svg>
