<svg width="120" height="120" viewBox="0 0 120 120" fill="none" xmlns="http://www.w3.org/2000/svg">
<g filter="url(#filter0_d)">
<circle cx="60" cy="56" r="45" fill="white"/>
</g>
<path d="M63.8462 81C75.5292 81 85.0001 71.5291 85.0001 59.8462C85.0001 48.1632 75.5292 38.6923 63.8462 38.6923C52.1633 38.6923 42.6924 48.1632 42.6924 59.8462C42.6924 71.5291 52.1633 81 63.8462 81Z" fill="#DBA5F5"/>
<path d="M58.0769 31C45.3305 31 35 41.3305 35 54.0769C35 66.8233 45.3305 77.1538 58.0769 77.1538C70.8233 77.1538 81.1538 66.8233 81.1538 54.0769C81.1538 41.3305 70.8233 31 58.0769 31ZM52.7764 34.9618C51.4017 36.1247 50.1713 37.7203 49.1481 39.6538C48.2151 39.1806 47.3227 38.6397 46.4799 38.0312H46.4168C48.3143 36.652 50.4597 35.6019 52.7764 34.9618ZM43.9333 40.1767C45.1412 41.1142 46.4483 41.9345 47.8275 42.6241C46.8314 45.3329 46.1779 48.4609 45.9751 51.8233H38.3714C38.8807 47.3071 40.909 43.2506 43.9333 40.1767ZM38.2677 55.0685H45.921C46.0201 58.9132 46.7097 62.4874 47.8275 65.5298C46.4438 66.2148 45.1412 67.0397 43.9333 67.9772C40.6295 64.6193 38.5156 60.0895 38.2677 55.0685ZM46.4213 70.1226H46.4844C47.3272 69.5141 48.2151 68.9733 49.1526 68.5C50.1803 70.4336 51.4062 72.0291 52.781 73.192C50.4597 72.552 48.3143 71.5018 46.4213 70.1226ZM56.6797 71.8398C54.9038 71.2764 53.3038 69.6584 52.0373 67.3191C53.5156 66.8459 55.0706 66.5439 56.6797 66.4312V71.8398ZM56.6797 63.177C54.6154 63.2987 52.6277 63.6953 50.7437 64.3263C49.8287 61.6716 49.2608 58.4985 49.1662 55.0685H56.6797V63.177ZM56.6797 51.8233H49.2203C49.405 48.8756 49.9414 46.1532 50.7392 43.8275C52.6232 44.4585 54.6109 44.8507 56.6752 44.9769V51.8233H56.6797ZM56.6797 41.7227C55.0706 41.61 53.5156 41.308 52.0373 40.8347C53.3038 38.491 54.9038 36.8729 56.6797 36.314V41.7227ZM77.7825 51.8233H70.1788C69.976 48.4609 69.3224 45.3329 68.3263 42.6241C69.71 41.939 71.0126 41.1142 72.2206 40.1767C75.2449 43.2506 77.2731 47.3071 77.7825 51.8233ZM69.7326 38.0312H69.6695C68.8266 38.6397 67.9387 39.1806 67.0012 39.6538C65.9736 37.7203 64.7476 36.1247 63.3729 34.9618C65.6941 35.6019 67.8395 36.652 69.7326 38.0312ZM59.9249 36.4808C61.5204 37.1569 62.9582 38.6938 64.1166 40.8347C62.7779 41.2629 61.3717 41.5514 59.9249 41.6866V36.4808ZM59.9249 44.9453C61.8269 44.7966 63.6659 44.4135 65.4102 43.8275C66.2124 46.1532 66.7488 48.8756 66.9291 51.8233H59.9249V44.9453ZM59.9249 55.0685H66.9877C66.893 58.4985 66.3251 61.6716 65.4102 64.3263C63.6659 63.7404 61.8269 63.3618 59.9249 63.2085V55.0685ZM59.9249 71.6731V66.4672C61.3717 66.6025 62.7734 66.8909 64.1166 67.3191C62.9582 69.46 61.5204 70.997 59.9249 71.6731ZM63.3774 73.192C64.7521 72.0291 65.9826 70.4336 67.0057 68.5C67.9387 68.9733 68.8311 69.5141 69.674 70.1226H69.7371C67.8395 71.5018 65.6941 72.552 63.3774 73.192ZM72.2206 67.9772C71.0126 67.0397 69.7055 66.2194 68.3263 65.5298C69.4486 62.4874 70.1337 58.9087 70.2329 55.0685H77.8861C77.6382 60.0895 75.5243 64.6193 72.2206 67.9772Z" fill="#BE52F2"/>
<defs>
<filter id="filter0_d" x="0" y="0" width="120" height="120" filterUnits="userSpaceOnUse" color-interpolation-filters="sRGB">
<feFlood flood-opacity="0" result="BackgroundImageFix"/>
<feColorMatrix in="SourceAlpha" type="matrix" values="0 0 0 0 0 0 0 0 0 0 0 0 0 0 0 0 0 0 127 0"/>
<feOffset dy="4"/>
<feGaussianBlur stdDeviation="7.5"/>
<feColorMatrix type="matrix" values="0 0 0 0 0.858824 0 0 0 0 0.647059 0 0 0 0 0.960784 0 0 0 0.5 0"/>
<feBlend mode="normal" in2="BackgroundImageFix" result="effect1_dropShadow"/>
<feBlend mode="normal" in="SourceGraphic" in2="effect1_dropShadow" result="shape"/>
</filter>
</defs>
</svg>
