<svg width="120" height="120" viewBox="0 0 120 120" fill="none" xmlns="http://www.w3.org/2000/svg">
<g filter="url(#filter0_d)">
<circle cx="60" cy="56" r="45" fill="white"/>
</g>
<path d="M58.1409 36.1021C59.6893 36.1021 60.947 37.3598 60.947 38.9082V57.3484C60.947 58.8968 59.6893 60.1545 58.1409 60.1545H42.9077C41.3593 60.1545 40.1016 58.8968 40.1016 57.3484V38.9082C40.1016 37.3598 41.3593 36.1021 42.9077 36.1021H58.1409ZM58.1409 63.3615C59.6893 63.3615 60.947 64.6193 60.947 66.1677V78.1939C60.947 79.7423 59.6893 81 58.1409 81H42.9077C41.3593 81 40.1016 79.7423 40.1016 78.1939V66.1677C40.1016 64.6193 41.3593 63.3615 42.9077 63.3615H58.1409ZM82.1934 36.1021C83.7418 36.1021 84.9995 37.3598 84.9995 38.9082V50.9344C84.9995 52.4828 83.7418 53.7405 82.1934 53.7405H66.9602C65.4118 53.7405 64.154 52.4828 64.154 50.9344V38.9082C64.154 37.3598 65.4118 36.1021 66.9602 36.1021H82.1934ZM82.1934 56.9475C83.7418 56.9475 84.9995 58.2053 84.9995 59.7537V78.1939C84.9995 79.7423 83.7418 81 82.1934 81H66.9602C65.4118 81 64.154 79.7423 64.154 78.1939V59.7537C64.154 58.2053 65.4118 56.9475 66.9602 56.9475H82.1934Z" fill="#FFE29D"/>
<path fill-rule="evenodd" clip-rule="evenodd" d="M37.8061 31H53.0394C54.5877 31 55.8455 32.2577 55.8455 33.8061V52.2464C55.8455 53.7947 54.5877 55.0525 53.0394 55.0525H37.8061C36.2577 55.0525 35 53.7947 35 52.2464V33.8061C35 32.2577 36.2577 31 37.8061 31ZM37.8061 52.2464H53.0394V33.8061H37.8061V52.2464Z" fill="#FFCF5C"/>
<path fill-rule="evenodd" clip-rule="evenodd" d="M37.8061 58.2595H53.0394C54.5877 58.2595 55.8455 59.5173 55.8455 61.0656V73.0919C55.8455 74.6403 54.5877 75.898 53.0394 75.898H37.8061C36.2577 75.898 35 74.6403 35 73.0919V61.0656C35 59.5173 36.2577 58.2595 37.8061 58.2595ZM37.8061 73.0919H53.0394V61.0656H37.8061V73.0919Z" fill="#FFCF5C"/>
<path fill-rule="evenodd" clip-rule="evenodd" d="M77.0901 31H61.8569C60.3085 31 59.0508 32.2577 59.0508 33.8061V45.8324C59.0508 47.3807 60.3085 48.6385 61.8569 48.6385H77.0901C78.6385 48.6385 79.8963 47.3807 79.8963 45.8324V33.8061C79.8963 32.2577 78.6385 31 77.0901 31ZM77.0901 45.8324H61.8569V33.8061H77.0901V45.8324Z" fill="#FFCF5C"/>
<path fill-rule="evenodd" clip-rule="evenodd" d="M61.8569 51.8455H77.0901C78.6385 51.8455 79.8963 53.1032 79.8963 54.6516V73.0918C79.8963 74.6402 78.6385 75.8979 77.0901 75.8979H61.8569C60.3085 75.8979 59.0508 74.6402 59.0508 73.0918V54.6516C59.0508 53.1032 60.3085 51.8455 61.8569 51.8455ZM61.8569 73.0918H77.0901V54.6516H61.8569V73.0918Z" fill="#FFCF5C"/>
<defs>
<filter id="filter0_d" x="0" y="0" width="120" height="120" filterUnits="userSpaceOnUse" color-interpolation-filters="sRGB">
<feFlood flood-opacity="0" result="BackgroundImageFix"/>
<feColorMatrix in="SourceAlpha" type="matrix" values="0 0 0 0 0 0 0 0 0 0 0 0 0 0 0 0 0 0 127 0"/>
<feOffset dy="4"/>
<feGaussianBlur stdDeviation="7.5"/>
<feColorMatrix type="matrix" values="0 0 0 0 1 0 0 0 0 0.886275 0 0 0 0 0.615686 0 0 0 1 0"/>
<feBlend mode="normal" in2="BackgroundImageFix" result="effect1_dropShadow"/>
<feBlend mode="normal" in="SourceGraphic" in2="effect1_dropShadow" result="shape"/>
</filter>
</defs>
</svg>
