<svg width="120" height="120" viewBox="0 0 120 120" fill="none" xmlns="http://www.w3.org/2000/svg">
<g filter="url(#filter0_d)">
<circle cx="60" cy="56" r="45" fill="white"/>
</g>
<path d="M61.3725 47.7871H39.4669C37.4854 47.7871 35.8823 49.813 35.8823 52.3171V75.4701C35.8823 77.9741 37.4854 80 39.4669 80H66.9179H82.9411C85.107 80 86.8627 78.2443 86.8627 76.0784V38.8235C86.8627 36.6577 85.107 34.902 82.9411 34.902H65.2941C63.1283 34.902 61.3725 36.6577 61.3725 38.8235V47.7871Z" fill="#BFC6FF"/>
<path d="M66.2439 73.4874C66.2439 72.5965 65.5319 71.8768 64.6507 71.8768H31.5931C30.7119 71.8768 30 72.5965 30 73.4874C30 74.3783 30.7119 75.0981 31.5931 75.0981H64.6507C65.5319 75.0981 66.2439 74.3783 66.2439 73.4874Z" fill="#6979F8"/>
<path d="M33.5846 68.6555H62.6593C64.6408 68.6555 66.2439 67.0348 66.2439 65.0316V46.5091C66.2439 44.5059 64.6408 42.8852 62.6593 42.8852H33.5846C31.6031 42.8852 30 44.5059 30 46.5091V65.0316C30 67.0348 31.6031 68.6555 33.5846 68.6555ZM33.1863 46.1065H63.0576V65.4342H33.1863V46.1065Z" fill="#6979F8"/>
<path d="M77.3954 30H59.0743C57.0928 30 55.4897 31.6207 55.4897 33.6239V38.0532C55.4897 38.9441 56.2017 39.6639 57.0829 39.6639C57.9641 39.6639 58.676 38.9441 58.676 38.0532V33.2213H77.7937V62.2129H71.4211C70.5399 62.2129 69.828 62.9326 69.828 63.8235C69.828 64.7144 70.5399 65.4342 71.4211 65.4342H77.7937V71.8768H71.1224C71.1373 71.8768 71.1523 71.8868 71.1622 71.8969C70.4055 72.0227 69.828 72.6871 69.828 73.4874C69.828 74.2877 70.4055 74.9521 71.1622 75.0779C71.1523 75.093 71.1373 75.098 71.1224 75.098H77.3954C79.3769 75.098 80.9799 73.4773 80.9799 71.4741V33.6239C80.9799 31.6207 79.3769 30 77.3954 30Z" fill="#6979F8"/>
<path d="M69.1815 70.6162C70.2644 70.6162 71.1423 69.7383 71.1423 68.6554C71.1423 67.5725 70.2644 66.6946 69.1815 66.6946C68.0986 66.6946 67.2207 67.5725 67.2207 68.6554C67.2207 69.7383 68.0986 70.6162 69.1815 70.6162Z" fill="#6979F8"/>
<defs>
<filter id="filter0_d" x="0" y="0" width="120" height="120" filterUnits="userSpaceOnUse" color-interpolation-filters="sRGB">
<feFlood flood-opacity="0" result="BackgroundImageFix"/>
<feColorMatrix in="SourceAlpha" type="matrix" values="0 0 0 0 0 0 0 0 0 0 0 0 0 0 0 0 0 0 127 0"/>
<feOffset dy="4"/>
<feGaussianBlur stdDeviation="7.5"/>
<feColorMatrix type="matrix" values="0 0 0 0 0.749089 0 0 0 0 0.778264 0 0 0 0 1 0 0 0 1 0"/>
<feBlend mode="normal" in2="BackgroundImageFix" result="effect1_dropShadow"/>
<feBlend mode="normal" in="SourceGraphic" in2="effect1_dropShadow" result="shape"/>
</filter>
</defs>
</svg>
