<svg width="51" height="50" viewBox="0 0 51 50" fill="none" xmlns="http://www.w3.org/2000/svg">
<path opacity="0.2" d="M5.00359 17.3542L26.3613 28.9102H27.5158L49.1621 17.3542C49.7393 17.0653 50.028 16.7764 50.028 16.1986C50.028 15.6208 49.7393 15.043 49.1621 15.043L27.8044 4.06482C27.5158 3.77592 26.9385 3.77592 26.6499 4.06482L5.00359 14.7541C4.42636 15.043 4.13774 15.6208 4.13774 16.1986C4.13774 16.7764 4.42636 17.0653 5.00359 17.3542ZM48.8735 25.4434L44.5442 23.4211L41.3694 25.1545L45.1215 26.8879L26.6499 36.9994L8.46701 26.8879L12.219 24.8656L9.33286 23.1322L4.71497 25.4434C3.5605 26.0212 3.5605 27.4657 4.71497 28.0435L26.0727 39.5995C26.3613 39.5995 26.6499 39.8884 26.6499 39.8884C26.9385 39.8884 27.2272 39.8884 27.2272 39.5995L48.8735 28.0435C50.028 27.4657 50.028 26.0212 48.8735 25.4434ZM48.8735 35.5549L44.8328 33.5326L41.6581 35.266L45.1215 36.9994L26.6499 47.1109L8.46701 36.9994L11.9304 35.266L8.75562 33.5326L4.71497 35.5549C3.5605 36.1327 3.5605 37.5772 4.71497 38.155L26.0727 49.711C26.3613 49.9999 26.3613 49.9999 26.6499 49.9999C26.9385 49.9999 27.2272 49.9999 27.2272 49.711L48.8735 38.155C50.028 37.5772 50.028 36.1327 48.8735 35.5549Z" fill="#2745FF"/>
<path d="M1.15447 13.5061L22.5122 25.0621H23.6667L45.313 13.5061C45.8902 13.2172 46.1788 12.9283 46.1788 12.3505C46.1788 11.7727 45.8902 11.1949 45.313 11.1949L23.9553 0.216675C23.6667 -0.072225 23.0894 -0.072225 22.8008 0.216675L1.15447 10.906C0.577236 11.1949 0.288618 11.7727 0.288618 12.3505C0.288618 12.9283 0.577236 13.2172 1.15447 13.5061ZM23.378 3.10567L41.561 12.3505L23.0894 22.1731L4.9065 12.3505L23.378 3.10567ZM45.0244 21.5953L40.6951 19.573L37.5203 21.3064L41.2723 23.0398L22.8008 33.1513L4.61789 23.0398L8.36992 21.0175L5.48374 19.2841L0.865853 21.5953C-0.288618 22.1731 -0.288618 23.6176 0.865853 24.1954L22.2236 35.7514C22.5122 35.7514 22.8008 36.0403 22.8008 36.0403C23.0894 36.0403 23.378 36.0403 23.378 35.7514L45.0244 24.1954C46.1788 23.6176 46.1788 22.1731 45.0244 21.5953ZM45.0244 31.7068L40.9837 29.6845L37.8089 31.4179L41.2723 33.1513L22.8008 43.2628L4.61789 33.1513L8.0813 31.4179L4.9065 29.6845L0.865853 31.7068C-0.288618 32.2846 -0.288618 33.7291 0.865853 34.3069L22.2236 45.8629C22.5122 46.1518 22.5122 46.1518 22.8008 46.1518C23.0894 46.1518 23.378 46.1518 23.378 45.8629L45.0244 34.3069C46.1788 33.7291 46.1788 32.2846 45.0244 31.7068Z" fill="#2745FF"/>
</svg>
