<svg width="50" height="50" viewBox="0 0 50 50" fill="none" xmlns="http://www.w3.org/2000/svg">
<path opacity="0.2" d="M23.1409 5.10205C24.6893 5.10205 25.947 6.35979 25.947 7.90817V26.3484C25.947 27.8968 24.6893 29.1545 23.1409 29.1545H7.90768C6.35931 29.1545 5.10156 27.8968 5.10156 26.3484V7.90817C5.10156 6.35979 6.35931 5.10205 7.90768 5.10205H23.1409ZM23.1409 32.3615C24.6893 32.3615 25.947 33.6193 25.947 35.1677V47.1939C25.947 48.7423 24.6893 50 23.1409 50H7.90768C6.35931 50 5.10156 48.7423 5.10156 47.1939V35.1677C5.10156 33.6193 6.35931 32.3615 7.90768 32.3615H23.1409ZM47.1934 5.10205C48.7418 5.10205 49.9995 6.35979 49.9995 7.90817V19.9344C49.9995 21.4828 48.7418 22.7405 47.1934 22.7405H31.9602C30.4118 22.7405 29.154 21.4828 29.154 19.9344V7.90817C29.154 6.35979 30.4118 5.10205 31.9602 5.10205H47.1934ZM47.1934 25.9475C48.7418 25.9475 49.9995 27.2053 49.9995 28.7537V47.1939C49.9995 48.7423 48.7418 50 47.1934 50H31.9602C30.4118 50 29.154 48.7423 29.154 47.1939V28.7537C29.154 27.2053 30.4118 25.9475 31.9602 25.9475H47.1934Z" fill="#2745FF"/>
<path fill-rule="evenodd" clip-rule="evenodd" d="M2.80612 0H18.0394C19.5877 0 20.8455 1.25774 20.8455 2.80612V21.2464C20.8455 22.7947 19.5877 24.0525 18.0394 24.0525H2.80612C1.25774 24.0525 0 22.7947 0 21.2464V2.80612C0 1.25774 1.25774 0 2.80612 0ZM2.80612 21.2464H18.0394V2.80612H2.80612V21.2464Z" fill="#2745FF"/>
<path fill-rule="evenodd" clip-rule="evenodd" d="M2.80612 27.2595H18.0394C19.5877 27.2595 20.8455 28.5173 20.8455 30.0656V42.0919C20.8455 43.6403 19.5877 44.898 18.0394 44.898H2.80612C1.25774 44.898 0 43.6403 0 42.0919V30.0656C0 28.5173 1.25774 27.2595 2.80612 27.2595ZM2.80612 42.0919H18.0394V30.0656H2.80612V42.0919Z" fill="#2745FF"/>
<path fill-rule="evenodd" clip-rule="evenodd" d="M42.0901 0H26.8569C25.3085 0 24.0508 1.25774 24.0508 2.80612V14.8324C24.0508 16.3807 25.3085 17.6385 26.8569 17.6385H42.0901C43.6385 17.6385 44.8963 16.3807 44.8963 14.8324V2.80612C44.8963 1.25774 43.6385 0 42.0901 0ZM42.0901 14.8324H26.8569V2.80612H42.0901V14.8324Z" fill="#2745FF"/>
<path fill-rule="evenodd" clip-rule="evenodd" d="M26.8569 20.8455H42.0901C43.6385 20.8455 44.8963 22.1032 44.8963 23.6516V42.0918C44.8963 43.6402 43.6385 44.8979 42.0901 44.8979H26.8569C25.3085 44.8979 24.0508 43.6402 24.0508 42.0918V23.6516C24.0508 22.1032 25.3085 20.8455 26.8569 20.8455ZM26.8569 42.0918H42.0901V23.6516H26.8569V42.0918Z" fill="#2745FF"/>
</svg>
