<svg width="79" height="28" viewBox="0 0 79 28" fill="none" xmlns="http://www.w3.org/2000/svg">
<path d="M9.58329 27.6139C7.67693 27.6139 6.00244 27.2146 4.55979 26.416C3.11714 25.5916 1.99652 24.3328 1.19791 22.8644C0.399304 21.396 0 19.6957 0 17.7636V0.00012207H5.33264V17.6091C5.33264 19.1548 5.71906 20.4042 6.4919 21.3574C7.29051 22.3105 8.32097 22.7871 9.58329 22.7871H13.6794C14.9674 22.7871 16.0108 22.3105 16.8094 21.3574C17.608 20.4042 18.0073 19.1548 18.0073 17.6091V0.00012207H23.3399V17.7636C23.3399 19.6957 22.9406 21.396 22.142 22.8644C21.3434 24.3328 20.2099 25.5916 18.7415 26.416C17.2731 27.2146 15.5857 27.6139 13.6794 27.6139H9.58329Z" fill="url(#paint0_linear)"/>
<path d="M9.58329 27.6139C7.67693 27.6139 6.00244 27.2146 4.55979 26.416C3.11714 25.5916 1.99652 24.3328 1.19791 22.8644C0.399304 21.396 0 19.6957 0 17.7636V0.00012207H5.33264V17.6091C5.33264 19.1548 5.71906 20.4042 6.4919 21.3574C7.29051 22.3105 8.32097 22.7871 9.58329 22.7871H13.6794C14.9674 22.7871 16.0108 22.3105 16.8094 21.3574C17.608 20.4042 18.0073 19.1548 18.0073 17.6091V0.00012207H23.3399V17.7636C23.3399 19.6957 22.9406 21.396 22.142 22.8644C21.3434 24.3328 20.2099 25.5916 18.7415 26.416C17.2731 27.2146 15.5857 27.6139 13.6794 27.6139H9.58329Z" fill="white"/>
<path d="M79.0002 8.52736C79.0002 10.0252 78.6649 11.341 77.9942 12.4745C77.3019 13.608 76.3391 14.4885 75.1059 15.116C73.8727 15.7435 72.0712 16.058 70.4486 16.058L56.8096 16.0579V11.2353L70.3187 11.2353C71.6168 11.2353 71.9239 11.1425 72.7244 10.5352C73.5249 9.90773 73.7784 9.08382 73.7784 8.09198L73.7784 7.84841C73.7784 6.83632 73.6303 6.09392 72.8298 5.46643C72.0293 4.83894 71.6168 4.70074 70.3188 4.70074L56.8096 4.70073V6.10352e-05L70.4486 6.90593e-05C72.0712 6.8993e-05 73.8727 0.313118 75.1059 0.94061C76.3391 1.5681 77.3019 2.45873 77.9942 3.61251C78.6649 4.76628 79.0002 6.09211 79.0002 7.58999L79.0002 8.52736Z" fill="url(#paint1_linear)"/>
<path d="M79.0002 8.52736C79.0002 10.0252 78.6649 11.341 77.9942 12.4745C77.3019 13.608 76.3391 14.4885 75.1059 15.116C73.8727 15.7435 72.0712 16.058 70.4486 16.058L56.8096 16.0579V11.2353L70.3187 11.2353C71.6168 11.2353 71.9239 11.1425 72.7244 10.5352C73.5249 9.90773 73.7784 9.08382 73.7784 8.09198L73.7784 7.84841C73.7784 6.83632 73.6303 6.09392 72.8298 5.46643C72.0293 4.83894 71.6168 4.70074 70.3188 4.70074L56.8096 4.70073V6.10352e-05L70.4486 6.90593e-05C72.0712 6.8993e-05 73.8727 0.313118 75.1059 0.94061C76.3391 1.5681 77.3019 2.45873 77.9942 3.61251C78.6649 4.76628 79.0002 6.09211 79.0002 7.58999L79.0002 8.52736Z" fill="white"/>
<rect x="26.7715" y="6.10352e-05" width="26.3491" height="4.84823" fill="#00C48C"/>
<rect x="26.7715" y="11.3829" width="26.3491" height="4.84823" fill="#00C48C"/>
<rect x="26.7715" y="22.7656" width="26.3491" height="4.84823" fill="#00C48C"/>
<defs>
<linearGradient id="paint0_linear" x1="-1.68866e-10" y1="13.807" x2="21.0674" y2="13.8058" gradientUnits="userSpaceOnUse">
<stop stop-color="#00C48C"/>
<stop offset="0.911458" stop-color="#0B2621"/>
</linearGradient>
<linearGradient id="paint1_linear" x1="56.8096" y1="8.02901" x2="76.8396" y2="8.02718" gradientUnits="userSpaceOnUse">
<stop stop-color="#00C48C"/>
<stop offset="0.911458" stop-color="#0B2621"/>
</linearGradient>
</defs>
</svg>
