<svg width="745" height="40" viewBox="0 0 745 40" fill="none" xmlns="http://www.w3.org/2000/svg">
<path d="M15.864 39.672C10.872 39.672 6.984 38.312 4.2 35.592C1.448 32.872 0.0720001 29.016 0.0720001 24.024V5.4H9.576V23.736C9.576 29.112 11.704 31.8 15.96 31.8C20.184 31.8 22.296 29.112 22.296 23.736V5.4H31.656V24.024C31.656 29.016 30.264 32.872 27.48 35.592C24.728 38.312 20.856 39.672 15.864 39.672ZM54.6064 12.552C57.8384 12.552 60.4304 13.512 62.3824 15.432C64.3664 17.352 65.3584 20.248 65.3584 24.12V39H56.2384V25.608C56.2384 22.056 54.8144 20.28 51.9664 20.28C50.3984 20.28 49.1344 20.792 48.1744 21.816C47.2464 22.84 46.7824 24.376 46.7824 26.424V39H37.6624V12.984H46.3504V15.816C47.3744 14.76 48.5904 13.96 49.9984 13.416C51.4064 12.84 52.9424 12.552 54.6064 12.552ZM71.0843 12.984H80.2043V39H71.0843V12.984ZM75.6443 10.104C73.9803 10.104 72.6363 9.64 71.6123 8.712C70.5883 7.784 70.0763 6.632 70.0763 5.256C70.0763 3.88 70.5883 2.728 71.6123 1.8C72.6363 0.871999 73.9803 0.407999 75.6443 0.407999C77.3083 0.407999 78.6523 0.855999 79.6763 1.752C80.7003 2.616 81.2123 3.736 81.2123 5.112C81.2123 6.552 80.7003 7.752 79.6763 8.712C78.6523 9.64 77.3083 10.104 75.6443 10.104ZM113.539 12.984L102.787 39H93.3791L82.6751 12.984H92.0351L98.2751 28.872L104.851 12.984H113.539ZM141.786 26.04C141.786 26.104 141.738 26.856 141.642 28.296H122.73C123.114 29.64 123.85 30.68 124.938 31.416C126.058 32.12 127.45 32.472 129.114 32.472C130.362 32.472 131.434 32.296 132.33 31.944C133.258 31.592 134.186 31.016 135.114 30.216L139.914 35.208C137.386 38.024 133.69 39.432 128.826 39.432C125.786 39.432 123.114 38.856 120.81 37.704C118.506 36.552 116.714 34.952 115.434 32.904C114.186 30.856 113.562 28.536 113.562 25.944C113.562 23.384 114.17 21.096 115.386 19.08C116.634 17.032 118.346 15.432 120.522 14.28C122.698 13.128 125.146 12.552 127.866 12.552C130.458 12.552 132.81 13.096 134.922 14.184C137.034 15.24 138.698 16.792 139.914 18.84C141.162 20.856 141.786 23.256 141.786 26.04ZM127.914 19.032C126.506 19.032 125.322 19.432 124.362 20.232C123.434 21.032 122.842 22.12 122.586 23.496H133.242C132.986 22.12 132.378 21.032 131.418 20.232C130.49 19.432 129.322 19.032 127.914 19.032ZM154.679 16.104C155.607 14.92 156.807 14.04 158.279 13.464C159.783 12.856 161.495 12.552 163.415 12.552V20.76C162.583 20.664 161.895 20.616 161.351 20.616C159.399 20.616 157.863 21.144 156.743 22.2C155.655 23.256 155.111 24.872 155.111 27.048V39H145.991V12.984H154.679V16.104ZM176.681 39.432C174.505 39.432 172.361 39.192 170.249 38.712C168.137 38.2 166.441 37.544 165.161 36.744L167.897 30.504C169.081 31.24 170.489 31.832 172.121 32.28C173.753 32.696 175.369 32.904 176.969 32.904C178.441 32.904 179.481 32.76 180.089 32.472C180.729 32.152 181.049 31.704 181.049 31.128C181.049 30.552 180.665 30.152 179.897 29.928C179.161 29.672 177.977 29.432 176.345 29.208C174.265 28.952 172.489 28.616 171.017 28.2C169.577 27.784 168.329 27.016 167.273 25.896C166.217 24.776 165.689 23.208 165.689 21.192C165.689 19.528 166.185 18.056 167.177 16.776C168.169 15.464 169.609 14.44 171.497 13.704C173.417 12.936 175.705 12.552 178.361 12.552C180.249 12.552 182.121 12.744 183.977 13.128C185.833 13.512 187.385 14.056 188.633 14.76L185.897 20.952C183.593 19.672 181.097 19.032 178.409 19.032C176.969 19.032 175.913 19.208 175.241 19.56C174.569 19.88 174.233 20.312 174.233 20.856C174.233 21.464 174.601 21.896 175.337 22.152C176.073 22.376 177.289 22.616 178.985 22.872C181.129 23.192 182.905 23.56 184.313 23.976C185.721 24.392 186.937 25.16 187.961 26.28C189.017 27.368 189.545 28.904 189.545 30.888C189.545 32.52 189.049 33.992 188.057 35.304C187.065 36.584 185.593 37.592 183.641 38.328C181.721 39.064 179.401 39.432 176.681 39.432ZM204.563 12.552C208.883 12.552 212.179 13.544 214.451 15.528C216.723 17.48 217.859 20.488 217.859 24.552V39H209.363V35.64C208.051 38.168 205.491 39.432 201.683 39.432C199.667 39.432 197.923 39.08 196.451 38.376C194.979 37.672 193.859 36.728 193.091 35.544C192.355 34.328 191.987 32.952 191.987 31.416C191.987 28.952 192.931 27.048 194.819 25.704C196.707 24.328 199.619 23.64 203.555 23.64H208.739C208.579 20.888 206.739 19.512 203.219 19.512C201.971 19.512 200.707 19.72 199.427 20.136C198.147 20.52 197.059 21.064 196.163 21.768L193.091 15.576C194.531 14.616 196.275 13.88 198.323 13.368C200.403 12.824 202.483 12.552 204.563 12.552ZM204.227 33.672C205.283 33.672 206.211 33.416 207.011 32.904C207.811 32.392 208.387 31.64 208.739 30.648V28.392H204.803C202.147 28.392 200.819 29.272 200.819 31.032C200.819 31.832 201.123 32.472 201.731 32.952C202.339 33.432 203.171 33.672 204.227 33.672ZM223.616 3.384H232.736V39H223.616V3.384ZM280.039 31.656V39H253.063V5.4H279.415V12.744H262.471V18.408H277.399V25.512H262.471V31.656H280.039ZM284.881 3.384H294.001V39H284.881V3.384ZM326.52 26.04C326.52 26.104 326.472 26.856 326.376 28.296H307.464C307.848 29.64 308.584 30.68 309.672 31.416C310.792 32.12 312.184 32.472 313.848 32.472C315.096 32.472 316.168 32.296 317.064 31.944C317.992 31.592 318.92 31.016 319.848 30.216L324.648 35.208C322.12 38.024 318.424 39.432 313.56 39.432C310.52 39.432 307.848 38.856 305.544 37.704C303.24 36.552 301.448 34.952 300.168 32.904C298.92 30.856 298.296 28.536 298.296 25.944C298.296 23.384 298.904 21.096 300.12 19.08C301.368 17.032 303.08 15.432 305.256 14.28C307.432 13.128 309.88 12.552 312.6 12.552C315.192 12.552 317.544 13.096 319.656 14.184C321.768 15.24 323.432 16.792 324.648 18.84C325.896 20.856 326.52 23.256 326.52 26.04ZM312.648 19.032C311.24 19.032 310.056 19.432 309.096 20.232C308.168 21.032 307.576 22.12 307.32 23.496H317.976C317.72 22.12 317.112 21.032 316.152 20.232C315.224 19.432 314.056 19.032 312.648 19.032ZM344.021 39.432C341.141 39.432 338.565 38.856 336.293 37.704C334.021 36.552 332.245 34.952 330.965 32.904C329.717 30.856 329.093 28.536 329.093 25.944C329.093 23.352 329.717 21.048 330.965 19.032C332.245 16.984 334.021 15.4 336.293 14.28C338.565 13.128 341.141 12.552 344.021 12.552C346.965 12.552 349.509 13.192 351.653 14.472C353.797 15.72 355.317 17.464 356.213 19.704L349.157 23.304C347.973 20.968 346.245 19.8 343.973 19.8C342.341 19.8 340.981 20.344 339.893 21.432C338.837 22.52 338.309 24.024 338.309 25.944C338.309 27.896 338.837 29.432 339.893 30.552C340.981 31.64 342.341 32.184 343.973 32.184C346.245 32.184 347.973 31.016 349.157 28.68L356.213 32.28C355.317 34.52 353.797 36.28 351.653 37.56C349.509 38.808 346.965 39.432 344.021 39.432ZM378.021 37.944C377.253 38.424 376.309 38.792 375.189 39.048C374.101 39.304 372.933 39.432 371.685 39.432C368.293 39.432 365.685 38.6 363.861 36.936C362.037 35.272 361.125 32.792 361.125 29.496V20.76H357.333V13.944H361.125V7.176H370.245V13.944H376.197V20.76H370.245V29.4C370.245 30.328 370.485 31.064 370.965 31.608C371.477 32.12 372.149 32.376 372.981 32.376C374.037 32.376 374.965 32.104 375.765 31.56L378.021 37.944ZM390.225 16.104C391.153 14.92 392.353 14.04 393.825 13.464C395.329 12.856 397.041 12.552 398.961 12.552V20.76C398.129 20.664 397.441 20.616 396.897 20.616C394.945 20.616 393.409 21.144 392.289 22.2C391.201 23.256 390.657 24.872 390.657 27.048V39H381.537V12.984H390.225V16.104ZM415.547 39.432C412.763 39.432 410.251 38.856 408.011 37.704C405.771 36.552 404.011 34.952 402.73 32.904C401.483 30.856 400.859 28.536 400.859 25.944C400.859 23.384 401.483 21.08 402.73 19.032C404.011 16.984 405.755 15.4 407.963 14.28C410.203 13.128 412.731 12.552 415.547 12.552C418.363 12.552 420.891 13.128 423.131 14.28C425.371 15.4 427.115 16.984 428.363 19.032C429.611 21.048 430.235 23.352 430.235 25.944C430.235 28.536 429.611 30.856 428.363 32.904C427.115 34.952 425.371 36.552 423.131 37.704C420.891 38.856 418.363 39.432 415.547 39.432ZM415.547 32.184C417.147 32.184 418.459 31.64 419.483 30.552C420.507 29.432 421.019 27.896 421.019 25.944C421.019 24.024 420.507 22.52 419.483 21.432C418.459 20.344 417.147 19.8 415.547 19.8C413.947 19.8 412.635 20.344 411.611 21.432C410.587 22.52 410.075 24.024 410.075 25.944C410.075 27.896 410.587 29.432 411.611 30.552C412.635 31.64 413.947 32.184 415.547 32.184ZM451.403 12.552C454.635 12.552 457.227 13.512 459.179 15.432C461.163 17.352 462.155 20.248 462.155 24.12V39H453.035V25.608C453.035 22.056 451.611 20.28 448.763 20.28C447.195 20.28 445.931 20.792 444.971 21.816C444.043 22.84 443.579 24.376 443.579 26.424V39H434.459V12.984H443.147V15.816C444.171 14.76 445.387 13.96 446.795 13.416C448.203 12.84 449.739 12.552 451.403 12.552ZM467.881 12.984H477.001V39H467.881V12.984ZM472.441 10.104C470.777 10.104 469.433 9.64 468.409 8.712C467.385 7.784 466.873 6.632 466.873 5.256C466.873 3.88 467.385 2.728 468.409 1.8C469.433 0.871999 470.777 0.407999 472.441 0.407999C474.105 0.407999 475.449 0.855999 476.473 1.752C477.497 2.616 478.009 3.736 478.009 5.112C478.009 6.552 477.497 7.752 476.473 8.712C475.449 9.64 474.105 10.104 472.441 10.104ZM496.224 39.432C493.344 39.432 490.768 38.856 488.496 37.704C486.224 36.552 484.448 34.952 483.168 32.904C481.92 30.856 481.296 28.536 481.296 25.944C481.296 23.352 481.92 21.048 483.168 19.032C484.448 16.984 486.224 15.4 488.496 14.28C490.768 13.128 493.344 12.552 496.224 12.552C499.168 12.552 501.712 13.192 503.856 14.472C506 15.72 507.52 17.464 508.416 19.704L501.36 23.304C500.176 20.968 498.448 19.8 496.176 19.8C494.544 19.8 493.184 20.344 492.096 21.432C491.04 22.52 490.512 24.024 490.512 25.944C490.512 27.896 491.04 29.432 492.096 30.552C493.184 31.64 494.544 32.184 496.176 32.184C498.448 32.184 500.176 31.016 501.36 28.68L508.416 32.28C507.52 34.52 506 36.28 503.856 37.56C501.712 38.808 499.168 39.432 496.224 39.432ZM541.611 5.4C544.651 5.4 547.291 5.912 549.531 6.936C551.771 7.928 553.499 9.368 554.715 11.256C555.931 13.112 556.539 15.304 556.539 17.832C556.539 20.36 555.931 22.552 554.715 24.408C553.499 26.264 551.771 27.704 549.531 28.728C547.291 29.72 544.651 30.216 541.611 30.216H535.755V39H526.251V5.4H541.611ZM541.035 22.728C542.987 22.728 544.459 22.312 545.451 21.48C546.443 20.616 546.939 19.4 546.939 17.832C546.939 16.264 546.443 15.048 545.451 14.184C544.459 13.32 542.987 12.888 541.035 12.888H535.755V22.728H541.035ZM561.209 3.384H570.329V39H561.209V3.384ZM587.344 12.552C591.664 12.552 594.96 13.544 597.232 15.528C599.504 17.48 600.64 20.488 600.64 24.552V39H592.144V35.64C590.832 38.168 588.272 39.432 584.464 39.432C582.448 39.432 580.704 39.08 579.232 38.376C577.76 37.672 576.64 36.728 575.872 35.544C575.136 34.328 574.768 32.952 574.768 31.416C574.768 28.952 575.712 27.048 577.6 25.704C579.488 24.328 582.4 23.64 586.336 23.64H591.52C591.36 20.888 589.52 19.512 586 19.512C584.752 19.512 583.488 19.72 582.208 20.136C580.928 20.52 579.84 21.064 578.944 21.768L575.872 15.576C577.312 14.616 579.056 13.88 581.104 13.368C583.184 12.824 585.264 12.552 587.344 12.552ZM587.008 33.672C588.064 33.672 588.992 33.416 589.792 32.904C590.592 32.392 591.168 31.64 591.52 30.648V28.392H587.584C584.928 28.392 583.6 29.272 583.6 31.032C583.6 31.832 583.904 32.472 584.512 32.952C585.12 33.432 585.952 33.672 587.008 33.672ZM624.349 37.944C623.581 38.424 622.637 38.792 621.517 39.048C620.429 39.304 619.261 39.432 618.013 39.432C614.621 39.432 612.013 38.6 610.189 36.936C608.365 35.272 607.453 32.792 607.453 29.496V20.76H603.661V13.944H607.453V7.176H616.573V13.944H622.525V20.76H616.573V29.4C616.573 30.328 616.813 31.064 617.293 31.608C617.805 32.12 618.477 32.376 619.309 32.376C620.365 32.376 621.293 32.104 622.093 31.56L624.349 37.944ZM637.802 13.944H643.994V20.76H638.042V39H628.922V20.76H625.13V13.944H628.922V13.272C628.922 10.104 629.866 7.592 631.754 5.736C633.674 3.88 636.346 2.952 639.77 2.952C640.922 2.952 642.042 3.064 643.13 3.288C644.218 3.512 645.114 3.848 645.818 4.296L643.562 10.728C642.666 10.216 641.754 9.96 640.826 9.96C639.866 9.96 639.114 10.248 638.57 10.824C638.058 11.4 637.802 12.248 637.802 13.368V13.944ZM660.14 39.432C657.356 39.432 654.844 38.856 652.604 37.704C650.364 36.552 648.604 34.952 647.324 32.904C646.076 30.856 645.452 28.536 645.452 25.944C645.452 23.384 646.076 21.08 647.324 19.032C648.604 16.984 650.348 15.4 652.556 14.28C654.796 13.128 657.324 12.552 660.14 12.552C662.956 12.552 665.484 13.128 667.724 14.28C669.964 15.4 671.708 16.984 672.956 19.032C674.204 21.048 674.828 23.352 674.828 25.944C674.828 28.536 674.204 30.856 672.956 32.904C671.708 34.952 669.964 36.552 667.724 37.704C665.484 38.856 662.956 39.432 660.14 39.432ZM660.14 32.184C661.74 32.184 663.052 31.64 664.076 30.552C665.1 29.432 665.612 27.896 665.612 25.944C665.612 24.024 665.1 22.52 664.076 21.432C663.052 20.344 661.74 19.8 660.14 19.8C658.54 19.8 657.228 20.344 656.204 21.432C655.18 22.52 654.668 24.024 654.668 25.944C654.668 27.896 655.18 29.432 656.204 30.552C657.228 31.64 658.54 32.184 660.14 32.184ZM687.741 16.104C688.669 14.92 689.869 14.04 691.341 13.464C692.845 12.856 694.557 12.552 696.477 12.552V20.76C695.645 20.664 694.957 20.616 694.413 20.616C692.461 20.616 690.925 21.144 689.805 22.2C688.717 23.256 688.173 24.872 688.173 27.048V39H679.053V12.984H687.741V16.104ZM734.129 12.552C737.329 12.552 739.873 13.512 741.761 15.432C743.681 17.352 744.641 20.248 744.641 24.12V39H735.521V25.608C735.521 23.784 735.169 22.44 734.465 21.576C733.793 20.712 732.833 20.28 731.585 20.28C730.209 20.28 729.105 20.76 728.273 21.72C727.441 22.68 727.025 24.136 727.025 26.088V39H717.905V25.608C717.905 22.056 716.593 20.28 713.969 20.28C712.561 20.28 711.441 20.76 710.609 21.72C709.777 22.68 709.361 24.136 709.361 26.088V39H700.241V12.984H708.929V15.72C709.889 14.664 711.025 13.88 712.337 13.368C713.681 12.824 715.137 12.552 716.705 12.552C718.529 12.552 720.161 12.888 721.601 13.56C723.041 14.232 724.209 15.256 725.105 16.632C726.129 15.32 727.425 14.312 728.993 13.608C730.561 12.904 732.273 12.552 734.129 12.552Z" fill="url(#paint0_linear)"/>
<defs>
<linearGradient id="paint0_linear" x1="-3" y1="21" x2="747" y2="21" gradientUnits="userSpaceOnUse">
<stop stop-color="#00C48C"/>
<stop offset="1" stop-color="white"/>
</linearGradient>
</defs>
</svg>
