<svg width="79" height="28" viewBox="0 0 79 28" fill="none" xmlns="http://www.w3.org/2000/svg">
<path d="M9.58329 27.6138C7.67693 27.6138 6.00244 27.2145 4.55979 26.4159C3.11714 25.5915 1.99652 24.3327 1.19791 22.8643C0.399304 21.3959 0 19.6956 0 17.7635V0H5.33264V17.6089C5.33264 19.1546 5.71906 20.4041 6.4919 21.3572C7.29051 22.3104 8.32097 22.787 9.58329 22.787H13.6794C14.9674 22.787 16.0108 22.3104 16.8094 21.3572C17.608 20.4041 18.0073 19.1546 18.0073 17.6089V0H23.3399V17.7635C23.3399 19.6956 22.9406 21.3959 22.142 22.8643C21.3434 24.3327 20.2099 25.5915 18.7415 26.4159C17.2731 27.2145 15.5857 27.6138 13.6794 27.6138H9.58329Z" fill="white"/>
<path d="M79.0002 8.5273C79.0002 10.0252 78.6649 11.3409 77.9942 12.4744C77.3019 13.608 76.3391 14.4885 75.1059 15.116C73.8727 15.7435 72.0712 16.0579 70.4486 16.0579L56.8096 16.0579V11.2352L70.3187 11.2352C71.6168 11.2352 71.9239 11.1424 72.7244 10.5352C73.5249 9.90767 73.7784 9.08376 73.7784 8.09192L73.7784 7.84835C73.7784 6.83626 73.6303 6.09386 72.8298 5.46637C72.0293 4.83888 71.6168 4.70068 70.3188 4.70068L56.8096 4.70067V0L70.4486 8.02417e-06C72.0712 7.95781e-06 73.8727 0.313057 75.1059 0.940549C76.3391 1.56804 77.3019 2.45867 77.9942 3.61245C78.6649 4.76622 79.0002 6.09205 79.0002 7.58993L79.0002 8.5273Z" fill="white"/>
<rect x="26.7715" width="26.3491" height="4.84823" fill="#00F1C0"/>
<rect x="26.7715" y="11.3828" width="26.3491" height="4.84823" fill="#00F1C0"/>
<rect x="26.7715" y="22.7656" width="26.3491" height="4.84823" fill="#00F1C0"/>
</svg>
